<svg xmlns="http://www.w3.org/2000/svg" viewBox="0 0 464.87 345.49"><g><g><path id="_Path_" data-name="&lt;Path&gt;" d="M221.49,311.61H200.92v31.9h20.57a89.78,89.78,0,0,0,89.69-89.68V172H279.27v81.8A57.85,57.85,0,0,1,221.49,311.61Z" style="fill:#fff"/><path id="_Compound_Path_" data-name="&lt;Compound Path&gt;" d="M220.53,268.24H143.89v31.91h76.64c25.36,0,46-20.43,46-45.54V186.88a61.21,61.21,0,1,0-61.21,61.21h29.31v6.52A13.71,13.71,0,0,1,220.53,268.24ZM205.3,216.19a29.31,29.31,0,1,1,29.31-29.31v29.31Z" style="fill:#fff"/><path id="_Path_2" data-name="&lt;Path&gt;" d="M464.87,236.52v-.23h0a109.3,109.3,0,0,0-109-108.73V104.89A104.9,104.9,0,0,0,148.8,81.13h-33l21-20.94L114.21,37.63,91.65,60.19l20.94,20.94h-7.7A105,105,0,0,0,.09,181.58C0,183.05,0,195.3,0,196.79A104.86,104.86,0,0,0,87.07,300.15V267.58A73.52,73.52,0,0,1,31.9,196.79c0-1.09,0-12.94.08-14A73.07,73.07,0,0,1,104.89,113H234.61V81.13H182a73,73,0,0,1,142,23.76v22.67H278.77v31.9h76.9a77.06,77.06,0,1,1,.2,154.12V172H324V345.49h31.71A109.31,109.31,0,0,0,464.86,236.75h0Z" style="fill:#fff"/><path id="_Compound_Path_2" data-name="&lt;Compound Path&gt;" d="M136.54,316.33a10.75,10.75,0,0,0-1.66.54,3.39,3.39,0,0,0-.69.39,1.76,1.76,0,0,0-.47.51,2.38,2.38,0,0,0-.27.74,6.28,6.28,0,0,0-.08,1.06v1.14a2.46,2.46,0,0,0,.71,2,2.82,2.82,0,0,0,1.87.61,4.36,4.36,0,0,0,1-.11,3.27,3.27,0,0,0,.73-.27,2.22,2.22,0,0,0,.5-.36,2.64,2.64,0,0,0,.31-.39,1.85,1.85,0,0,0,.58.8,1.92,1.92,0,0,0,1.25.35,2.68,2.68,0,0,0,.76-.11,1.41,1.41,0,0,0,.58-.32v-1.45a1.12,1.12,0,0,1-.3.2.82.82,0,0,1-.37.07.61.61,0,0,1-.42-.17.62.62,0,0,1-.17-.49v-6.3a6.38,6.38,0,0,0-.16-1.48,2.37,2.37,0,0,0-.57-1.06,2.3,2.3,0,0,0-1.09-.63,5.94,5.94,0,0,0-1.71-.2,4.9,4.9,0,0,0-1.6.22,2.33,2.33,0,0,0-1.57,1.65,4.81,4.81,0,0,0-.17,1.3,6,6,0,0,0,0,.67c0,.19,0,.37.07.56h2a5.06,5.06,0,0,1-.1-1.05,1.65,1.65,0,0,1,.25-1,1.24,1.24,0,0,1,1.06-.36,1.45,1.45,0,0,1,1,.29,1.37,1.37,0,0,1,.28,1v1.18A11.25,11.25,0,0,1,136.54,316.33Zm1.64,4.34a3.64,3.64,0,0,1-.59.45,1.54,1.54,0,0,1-.83.23,1.25,1.25,0,0,1-.85-.29,1.29,1.29,0,0,1-.32-1v-.72a1.3,1.3,0,0,1,.3-.91,2.33,2.33,0,0,1,.72-.52,4.53,4.53,0,0,1,.85-.3,3.72,3.72,0,0,0,.72-.21Z" style="fill:#fff"/><path id="_Path_3" data-name="&lt;Path&gt;" d="M132.09,340.59a1.71,1.71,0,0,1-.64.62,1.85,1.85,0,0,1-.8.17,1.1,1.1,0,0,1-.83-.27,1.65,1.65,0,0,1-.27-1.12v-8.24h-2.17v8.88a3.47,3.47,0,0,0,.56,2.22,2.23,2.23,0,0,0,1.8.66,3.5,3.5,0,0,0,1.59-.29,3.63,3.63,0,0,0,1-.79v.91h2V331.75h-2.26Z" style="fill:#fff"/><path id="_Path_4" data-name="&lt;Path&gt;" d="M113.92,314.37a2.36,2.36,0,0,1,.63-.67,1.29,1.29,0,0,1,.79-.28.76.76,0,0,1,.74.38,1.74,1.74,0,0,1,.19.82,3.48,3.48,0,0,1,0,.63,4.26,4.26,0,0,1-.15.69h2a6.58,6.58,0,0,0,.22-1.76,5.34,5.34,0,0,0-.11-1.08,2.77,2.77,0,0,0-.35-.9,1.84,1.84,0,0,0-.65-.62,1.9,1.9,0,0,0-1-.23,2.8,2.8,0,0,0-1.44.36,4.7,4.7,0,0,0-1.1,1v-1.14h-1.95v11.59h2.24Z" style="fill:#fff"/><path id="_Compound_Path_3" data-name="&lt;Compound Path&gt;" d="M116.47,335.1V340a3.39,3.39,0,0,0,1,2.66,3.66,3.66,0,0,0,2.55.86,3.73,3.73,0,0,0,2.58-.86,3.36,3.36,0,0,0,1-2.66V335.1a3.4,3.4,0,0,0-1-2.67,3.77,3.77,0,0,0-2.58-.86,3.71,3.71,0,0,0-2.55.86A3.43,3.43,0,0,0,116.47,335.1Zm2.21.06a1.94,1.94,0,0,1,.29-1.09,1.12,1.12,0,0,1,1-.42,1.18,1.18,0,0,1,1.06.44,2,2,0,0,1,.28,1.07V340a1.56,1.56,0,0,1-.3,1,1.31,1.31,0,0,1-1,.36,1.24,1.24,0,0,1-1-.35,1.55,1.55,0,0,1-.29-1Z" style="fill:#fff"/><path id="_Path_5" data-name="&lt;Path&gt;" d="M150.1,313.7a1.51,1.51,0,0,1,.28,1v8.37h2.25v-8.86A3.36,3.36,0,0,0,152,312a2.4,2.4,0,0,0-1.87-.66,3.41,3.41,0,0,0-1.64.32,4,4,0,0,0-1,.76v-.91h-1.95v11.59h2.23v-8.88a2,2,0,0,1,.66-.63,1.8,1.8,0,0,1,.82-.18A1.19,1.19,0,0,1,150.1,313.7Z" style="fill:#fff"/><polygon id="_Path_6" data-name="&lt;Path&gt;" points="129.52 311.52 127.47 311.52 125.89 319.51 125.81 319.51 124.33 311.52 122.11 311.52 124.55 323.11 127.03 323.11 129.52 311.52" style="fill:#fff"/><rect id="_Path_7" data-name="&lt;Path&gt;" x="149.13" y="340.59" width="2.76" height="2.75" style="fill:#fff"/><path id="_Compound_Path_4" data-name="&lt;Compound Path&gt;" d="M172.69,342.65a3.36,3.36,0,0,0,1-2.66V335.1a3.4,3.4,0,0,0-1-2.67,3.77,3.77,0,0,0-2.58-.86,3.69,3.69,0,0,0-2.55.86,3.43,3.43,0,0,0-1,2.67V340a3.39,3.39,0,0,0,1,2.66,3.65,3.65,0,0,0,2.55.86A3.73,3.73,0,0,0,172.69,342.65ZM168.81,340v-4.87a1.94,1.94,0,0,1,.29-1.09,1.11,1.11,0,0,1,1-.42,1.19,1.19,0,0,1,1.06.44,2,2,0,0,1,.28,1.07V340a1.56,1.56,0,0,1-.3,1,1.31,1.31,0,0,1-1,.36,1.23,1.23,0,0,1-1-.35A1.55,1.55,0,0,1,168.81,340Z" style="fill:#fff"/><path id="_Path_8" data-name="&lt;Path&gt;" d="M162.54,338.32h-2c0,.18.06.38.08.6s0,.44,0,.66a4.74,4.74,0,0,1,0,.65,1.92,1.92,0,0,1-.21.58,1.15,1.15,0,0,1-.41.41,1.36,1.36,0,0,1-.71.16,1.24,1.24,0,0,1-.46-.08,1.18,1.18,0,0,1-.42-.24,1.27,1.27,0,0,1-.3-.43A1.46,1.46,0,0,1,158,340v-4.54a2.55,2.55,0,0,1,.3-1.35,1.48,1.48,0,0,1,2.08-.08,1.89,1.89,0,0,1,.3,1.14,4.12,4.12,0,0,1,0,.51,3.93,3.93,0,0,1-.06.48h2a4.84,4.84,0,0,0,.15-1.28,5.32,5.32,0,0,0-.17-1.38,2.41,2.41,0,0,0-.55-1.05,2.78,2.78,0,0,0-1-.66,4.92,4.92,0,0,0-1.6-.23,3.81,3.81,0,0,0-2.62.83,3.2,3.2,0,0,0-.94,2.54v5.18a3.17,3.17,0,0,0,1,2.56,3.8,3.8,0,0,0,2.57.83,4,4,0,0,0,1.65-.3,2.89,2.89,0,0,0,1.06-.8,3.35,3.35,0,0,0,.57-1.15,5.45,5.45,0,0,0,.17-1.33,7.58,7.58,0,0,0-.05-.84A5.82,5.82,0,0,0,162.54,338.32Z" style="fill:#fff"/><path id="_Path_9" data-name="&lt;Path&gt;" d="M99.53,340.12a3.17,3.17,0,0,0,1,2.56,3.79,3.79,0,0,0,2.56.83,4,4,0,0,0,1.66-.3,2.77,2.77,0,0,0,1.05-.8,3,3,0,0,0,.57-1.15,5,5,0,0,0,.18-1.33,5.73,5.73,0,0,0-.06-.84,4.57,4.57,0,0,0-.15-.77h-2c0,.18.05.38.07.6s0,.44,0,.66a3.56,3.56,0,0,1,0,.65,1.67,1.67,0,0,1-.2.58,1.1,1.1,0,0,1-.42.41,1.31,1.31,0,0,1-.71.16,1.19,1.19,0,0,1-.45-.08,1.1,1.1,0,0,1-.42-.24,1.27,1.27,0,0,1-.3-.43,1.32,1.32,0,0,1-.13-.62v-4.54a2.54,2.54,0,0,1,.31-1.35,1.16,1.16,0,0,1,1.07-.47,1.19,1.19,0,0,1,1,.39,1.89,1.89,0,0,1,.29,1.14,4.18,4.18,0,0,1,0,.51,3.93,3.93,0,0,1-.06.48h2a4.87,4.87,0,0,0,.14-1.28,5.34,5.34,0,0,0-.16-1.38,2.42,2.42,0,0,0-.56-1.05,2.66,2.66,0,0,0-1-.66,5,5,0,0,0-1.61-.23,3.85,3.85,0,0,0-2.62.83,3.23,3.23,0,0,0-.93,2.54Z" style="fill:#fff"/><path id="_Compound_Path_5" data-name="&lt;Compound Path&gt;" d="M99.53,320.71a2.46,2.46,0,0,0,.71,2,2.82,2.82,0,0,0,1.87.61,4.21,4.21,0,0,0,1-.11,3.18,3.18,0,0,0,.74-.27,2.15,2.15,0,0,0,.49-.36,2.2,2.2,0,0,0,.32-.39,1.85,1.85,0,0,0,.58.8,1.89,1.89,0,0,0,1.24.35,2.7,2.7,0,0,0,.77-.11,1.48,1.48,0,0,0,.58-.32v-1.45a1.31,1.31,0,0,1-.3.2.84.84,0,0,1-.37.07.57.57,0,0,1-.42-.17.62.62,0,0,1-.17-.49v-6.3a5.85,5.85,0,0,0-.17-1.48,2.26,2.26,0,0,0-.56-1.06,2.4,2.4,0,0,0-1.09-.63,6,6,0,0,0-1.72-.2,4.88,4.88,0,0,0-1.59.22,2.28,2.28,0,0,0-1.57,1.65,4.81,4.81,0,0,0-.17,1.3,6.32,6.32,0,0,0,0,.67c0,.19.05.37.07.56h2a5,5,0,0,1-.11-1.05,1.65,1.65,0,0,1,.26-1,1.24,1.24,0,0,1,1.06-.36,1.47,1.47,0,0,1,1,.29,1.37,1.37,0,0,1,.28,1v1.18a11.25,11.25,0,0,1-1.64.53,10.87,10.87,0,0,0-1.67.54,3.69,3.69,0,0,0-.69.39,1.72,1.72,0,0,0-.46.51,2.15,2.15,0,0,0-.27.74,6.28,6.28,0,0,0-.08,1.06Zm2.21-1.34a1.3,1.3,0,0,1,.31-.91,2.22,2.22,0,0,1,.72-.52,4.53,4.53,0,0,1,.85-.3,4,4,0,0,0,.72-.21v3.24a3.35,3.35,0,0,1-.6.45,1.49,1.49,0,0,1-.82.23,1.23,1.23,0,0,1-.85-.29,1.25,1.25,0,0,1-.33-1Z" style="fill:#fff"/><path id="_Path_10" data-name="&lt;Path&gt;" d="M189.49,343.34v-8.86a3.34,3.34,0,0,0-.6-2.24,2.41,2.41,0,0,0-1.87-.67,3.85,3.85,0,0,0-1.5.25,3.74,3.74,0,0,0-1.23.86,1.72,1.72,0,0,0-.82-.84,2.94,2.94,0,0,0-1.33-.27,3.52,3.52,0,0,0-1.63.32,4.59,4.59,0,0,0-1,.77v-.91h-2v11.59h2.24v-8.88a1.62,1.62,0,0,1,1.48-.81,1.15,1.15,0,0,1,.85.28,1.44,1.44,0,0,1,.29,1v8.38h2.25v-8.88a1.62,1.62,0,0,1,1.48-.81,1.19,1.19,0,0,1,.86.28,1.49,1.49,0,0,1,.28,1v8.38Z" style="fill:#fff"/><path id="_Compound_Path_6" data-name="&lt;Compound Path&gt;" d="M143.05,332.46a2.23,2.23,0,0,0-.91-.66,3.17,3.17,0,0,0-1.2-.23,3.81,3.81,0,0,0-1.18.17,1.83,1.83,0,0,0-.85.57,2.73,2.73,0,0,0-.53,1.08,6.89,6.89,0,0,0-.18,1.71v5.25a3.5,3.5,0,0,0,.68,2.45,2.64,2.64,0,0,0,2,.71,3.29,3.29,0,0,0,1.39-.26,3,3,0,0,0,1-.82v.91h2V328h-2.23Zm0,8.15a2.39,2.39,0,0,1-.72.6,1.78,1.78,0,0,1-.74.17,1.29,1.29,0,0,1-.61-.12.77.77,0,0,1-.35-.34,1.86,1.86,0,0,1-.16-.61,8.12,8.12,0,0,1,0-.91v-3.68a4.1,4.1,0,0,1,.22-1.59,1,1,0,0,1,1-.48,1.65,1.65,0,0,1,.74.18,1.78,1.78,0,0,1,.66.63Z" style="fill:#fff"/><rect id="_Path_11" data-name="&lt;Path&gt;" x="110.39" y="327.97" width="2.23" height="15.37" style="fill:#fff"/><rect id="_Path_12" data-name="&lt;Path&gt;" x="99.53" y="127.56" width="31.9" height="172.59" style="fill:#fff"/></g></g></svg>